Coordinates
version=1
nRows=8
nColumns=36
inDegrees=yes

Units are S.I. units (second, meters, Newtons, ...)
If the header above contains a line with 'inDegrees', this indicates whether rotational values are in degrees (yes) or radians (no).

endheader
time	pelvis_tilt	pelvis_list	pelvis_rotation	pelvis_tx	pelvis_ty	pelvis_tz	hip_flexion_r	hip_adduction_r	hip_rotation_r	knee_angle_r	knee_angle_r_beta	ankle_angle_r	subtalar_angle_r	mtp_angle_r	hip_flexion_l	hip_adduction_l	hip_rotation_l	knee_angle_l	knee_angle_l_beta	ankle_angle_l	subtalar_angle_l	mtp_angle_l	lumbar_extension	lumbar_bending	lumbar_rotation	arm_flex_r	arm_add_r	arm_rot_r	elbow_flex_r	pro_sup_r	arm_flex_l	arm_add_l	arm_rot_l	elbow_flex_l	pro_sup_l
      0.00000000	      1.47062627	      1.61376263	      8.41727407	     -0.15164967	      0.91426157	     -0.27585843	     26.22710172	     -5.42081696	      6.27941327	      6.36327450	      0.11106009	      4.87894220	      3.24296992	     -5.63246191	    -21.66079306	      0.26854584	     10.06839860	     13.66415161	      0.23848444	     16.68501063	     12.25106479	     -5.63246191	     -7.30440095	     -2.45914390	    -10.59358120	    -19.56580757	     -4.90219097	    -11.37863228	     32.81054517	    111.73038936	     -1.29900199	     -9.47546830	     -8.41134599	     54.15552621	    109.71163187
      0.01000000	      1.43102163	      1.36608177	      8.38482444	     -0.13529497	      0.91376497	     -0.27352194	     26.13447402	     -4.83638462	      5.70022313	      7.37225050	      0.12867004	      2.95966416	      3.63064698	     -5.65144347	    -21.66984164	     -0.27519311	      9.46886022	     15.02244996	      0.26219121	     14.78666526	     12.35195491	     -5.65144347	     -6.97817750	     -2.15287074	    -10.62858806	    -19.72843431	     -4.90685431	    -11.43644906	     32.77286567	    111.68552644	     -2.04082690	     -9.25385480	     -8.60817206	     53.22529115	    109.69455647
      0.02000000	      1.34966812	      1.05403617	      8.28950703	     -0.11889875	      0.91327311	     -0.27108440	     26.10500372	     -4.15798636	      5.27815122	      8.42319200	      0.14701243	      1.06506654	      3.86158464	     -5.67074302	    -21.52428272	     -0.87541500	      8.68906509	     16.53647247	      0.28861589	     12.76441030	     12.56994959	     -5.67074302	     -6.59119970	     -1.77640755	    -10.59832221	    -19.90943403	     -4.95325682	    -11.49873301	     32.70630741	    111.63737011	     -2.76551907	     -8.95659836	     -8.99395193	     52.20384021	    109.64867170
      0.03000000	      1.22312748	      0.64723134	      8.11024875	     -0.10248408	      0.91291247	     -0.26853074	     26.15679645	     -3.32020358	      5.07515217	      9.58509994	      0.16729155	     -0.54990315	      3.79167726	     -5.69595832	    -21.14082130	     -1.55289861	      7.77841564	     18.31740904	      0.31969910	     10.65433055	     12.92105949	     -5.69595832	     -6.13575172	     -1.30131019	    -10.46175140	    -20.08490195	     -5.01170385	    -11.54308471	     32.63940329	    111.58038807	     -3.45801198	     -8.54616450	     -9.49910843	     51.06679121	    109.60532374
      0.04000000	      1.14032473	      0.19719334	      7.83202722	     -0.08606431	      0.91284298	     -0.26586855	     26.21488860	     -2.36900262	      4.98000844	     10.93500647	      0.19085187	     -1.63254586	      3.48725267	     -5.71874015	    -20.53240162	     -2.26934344	      6.60228080	     20.50393608	      0.35786119	      8.24577885	     13.18201098	     -5.71874015	     -5.72745138	     -0.76373907	    -10.24451991	    -20.26227822	     -5.15151971	    -11.57121715	     32.62280325	    111.53153783	     -4.13236331	     -8.18302905	     -9.99880879	     49.87372950	    109.54806935
      0.05000000	      1.02940896	     -0.34729432	      7.43574355	     -0.06980779	      0.91301297	     -0.26307614	     26.35598767	     -1.23163442	      5.25469953	     12.48485914	      0.21790190	     -2.17258086	      2.90120686	     -5.74317375	    -19.64159504	     -3.05153983	      5.51019626	     23.04790611	      0.40226185	      5.68144452	     13.40422375	     -5.74317375	     -5.34387280	     -0.09385622	     -9.88432435	    -20.41212211	     -5.26080207	    -11.56138729	     32.67273541	    111.48596232	     -4.73464618	     -7.67383635	    -10.47609035	     48.58191826	    109.49358898
      0.06000000	      1.04408750	     -0.90917237	      6.97322707	     -0.05378002	      0.91360779	     -0.26029784	     26.37438528	     -0.01848601	      5.64676504	     14.16559701	      0.24723631	     -2.14842814	      2.12992159	     -5.76215372	    -18.56019849	     -3.86623365	      4.34903223	     26.05815308	      0.45480057	      2.77717724	     13.42408897	     -5.76215372	     -5.16462301	      0.62098863	     -9.46329354	    -20.51907648	     -5.43166144	    -11.54369977	     32.79204226	    111.45531689	     -5.26268750	     -7.19243338	    -10.89684973	     47.30050018	    109.42470303
      0.07000000	      0.92186372	     -1.57586923	      6.43718363	     -0.03794840	      0.91419319	     -0.25735233	     26.55957367	      1.37669790	      6.37592665	     15.98710996	      0.27902771	     -1.78519422	      0.98407867	     -5.78479944	    -17.05531465	     -4.79074144	      3.29174519	     29.39838829	      0.51309867	     -0.54318942	     13.25962265	     -5.78479944	     -4.81389284	      1.43239331	     -8.86697708	    -20.73746969	     -5.61424299	    -11.50389365	     33.01986967	    111.42669123	     -5.68917175	     -6.69317200	    -11.40732804	     45.80603979	    109.35268452
